<svg id="Layer_1" data-name="Layer 1" xmlns="http://www.w3.org/2000/svg" viewBox="0 0 205.4 248.9"><defs><style>.cls-1,.cls-2,.cls-5,.cls-8{fill:#f4f8fb;}.cls-1,.cls-3,.cls-4,.cls-5,.cls-6,.cls-7,.cls-8,.cls-9{stroke:#f48024;}.cls-1,.cls-2,.cls-3,.cls-4,.cls-5,.cls-6,.cls-7,.cls-8,.cls-9{stroke-miterlimit:10;}.cls-1,.cls-2,.cls-6{stroke-width:0.5px;}.cls-2{stroke:#99d4ff;}.cls-3,.cls-6,.cls-9{fill:none;}.cls-3,.cls-4,.cls-5{stroke-width:0.25px;}.cls-4,.cls-7{fill:#fff;}.cls-7,.cls-8,.cls-9{stroke-width:0.22px;}</style></defs><title>whatsnext2</title><circle class="cls-1" cx="99" cy="128.67" r="74.23"/><path class="cls-2" d="M83.24,28.54A7.73,7.73,0,0,1,91,36.24s0,0,0,.06H83.24V28.54Z"/><path class="cls-2" d="M91,36.3a7.73,7.73,0,0,1-7.7,7.76H83.24V36.3H91Z"/><path class="cls-2" d="M83.24,36.3a7.73,7.73,0,0,1-7.76-7.7s0,0,0-.06h7.76V36.3Z"/><path class="cls-2" d="M137.68,36.67a7.73,7.73,0,0,0-7.76,7.7s0,0,0,.06h7.76V36.67Z"/><path class="cls-2" d="M137.68,44.42a7.73,7.73,0,0,0,7.76-7.7s0,0,0-.06h-7.76v7.76Z"/><path class="cls-2" d="M11.56,64.61a7.73,7.73,0,0,0-7.76,7.7s0,0,0,.06h7.76V64.61Z"/><path class="cls-2" d="M11.56,72.36a7.73,7.73,0,0,0,7.76-7.7s0,0,0-.06H11.56v7.76Z"/><path class="cls-2" d="M46.75,44.64H61.87V37.21H54.11a7.2,7.2,0,0,0-5.21,2.22A7.4,7.4,0,0,0,46.75,44.64Z"/><path class="cls-2" d="M173.33,36.67H150.78V44.1H166A7.46,7.46,0,0,0,173.33,36.67Z"/><path class="cls-2" d="M92.34,51.22H69.79v7.43H85a7.2,7.2,0,0,0,5.21-2.22A7.52,7.52,0,0,0,92.34,51.22Z"/><path class="cls-2" d="M61.94,51.64H46.82v7.43h7.76a7.2,7.2,0,0,0,5.21-2.22A7.4,7.4,0,0,0,61.94,51.64Z"/><path class="cls-2" d="M12,59.07H42V51.64H19.38a7.2,7.2,0,0,0-5.21,2.22A7.4,7.4,0,0,0,12,59.07Z"/><path class="cls-2" d="M159.52,16.31h0a7.46,7.46,0,0,0-7.37,7.43H190a7.46,7.46,0,0,0,7.37-7.43H159.52Z"/><circle class="cls-2" cx="71.12" cy="40.93" r="3.72"/><circle class="cls-2" cx="101.2" cy="55" r="3.72"/><path class="cls-2" d="M115.69,16.11H93.13v7.43h15.19a7.2,7.2,0,0,0,5.21-2.22A7.4,7.4,0,0,0,115.69,16.11Z"/><circle class="cls-2" cx="72.93" cy="19.83" r="3.72"/><circle class="cls-2" cx="83.75" cy="19.83" r="3.72"/><circle class="cls-2" cx="181.68" cy="40.38" r="3.72"/><path class="cls-2" d="M101.88,37.08h0a7.46,7.46,0,0,0-7.37,7.43H117.4a7.46,7.46,0,0,0,7.37-7.43H101.88Z"/><rect class="cls-3" x="46.46" y="211.56" width="15.65" height="15.65"/><rect class="cls-3" x="41.24" y="216.78" width="15.65" height="15.65"/><line class="cls-3" x1="46.46" y1="211.56" x2="41.24" y2="216.78"/><line class="cls-3" x1="62.11" y1="211.56" x2="56.89" y2="216.78"/><line class="cls-3" x1="62.11" y1="227.22" x2="56.89" y2="232.44"/><line class="cls-3" x1="46.46" y1="227.22" x2="41.24" y2="232.44"/><circle class="cls-4" cx="46.46" cy="211.56" r="1.3"/><circle class="cls-5" cx="46.46" cy="211.56" r="1.3"/><circle class="cls-4" cx="41.24" cy="216.78" r="1.3"/><circle class="cls-5" cx="41.24" cy="216.78" r="1.3"/><circle class="cls-4" cx="41.24" cy="232.44" r="1.3"/><circle class="cls-5" cx="41.24" cy="232.44" r="1.3"/><circle class="cls-4" cx="46.46" cy="227.22" r="1.3"/><circle class="cls-5" cx="46.46" cy="227.22" r="1.3"/><circle class="cls-4" cx="56.89" cy="232.44" r="1.3"/><circle class="cls-5" cx="56.89" cy="232.44" r="1.3"/><circle class="cls-4" cx="62.11" cy="227.22" r="1.3"/><circle class="cls-5" cx="62.11" cy="227.22" r="1.3"/><circle class="cls-4" cx="62.11" cy="211.56" r="1.3"/><circle class="cls-5" cx="62.11" cy="211.56" r="1.3"/><circle class="cls-4" cx="56.89" cy="216.78" r="1.3"/><circle class="cls-5" cx="56.89" cy="216.78" r="1.3"/><line class="cls-3" x1="51.67" y1="212.87" x2="51.67" y2="213.74"/><line class="cls-3" x1="51.67" y1="214.61" x2="51.67" y2="215.48"/><line class="cls-3" x1="51.67" y1="218.09" x2="51.67" y2="218.96"/><line class="cls-3" x1="51.67" y1="225.04" x2="51.67" y2="225.91"/><line class="cls-3" x1="51.67" y1="219.83" x2="51.67" y2="220.7"/><line class="cls-3" x1="51.67" y1="228.52" x2="51.67" y2="229.39"/><line class="cls-3" x1="51.67" y1="230.26" x2="51.67" y2="231.13"/><line class="cls-3" x1="51.67" y1="223.3" x2="51.67" y2="224.17"/><line class="cls-3" x1="60.8" y1="222" x2="59.94" y2="222"/><line class="cls-3" x1="59.07" y1="222" x2="58.2" y2="222"/><line class="cls-3" x1="55.59" y1="222" x2="54.72" y2="222"/><line class="cls-3" x1="48.63" y1="222" x2="47.76" y2="222"/><line class="cls-3" x1="53.85" y1="222" x2="52.98" y2="222"/><line class="cls-3" x1="45.15" y1="222" x2="44.28" y2="222"/><line class="cls-3" x1="43.41" y1="222" x2="42.54" y2="222"/><line class="cls-3" x1="50.37" y1="222" x2="49.5" y2="222"/><path class="cls-2" d="M77.61,209.93a7.69,7.69,0,0,0-7.71,7.67s0,0,0,0h7.71v-7.71h0Z"/><path class="cls-2" d="M77.61,217.65A7.69,7.69,0,0,0,85.32,210s0,0,0,0H77.61v7.71Z"/><path class="cls-2" d="M89,217.65A7.69,7.69,0,0,0,96.71,210s0,0,0,0H89v7.71Z"/><path class="cls-2" d="M10.74,226.42h0a7.41,7.41,0,0,0-7.32,7.39H26.17a7.41,7.41,0,0,0,7.32-7.39H10.74Z"/><path class="cls-2" d="M136.47,210.09H104.84v7.39h24.31A7.41,7.41,0,0,0,136.47,210.09Z"/><path class="cls-2" d="M126.77,225.62h0a7.41,7.41,0,0,0-7.32,7.39H131a7.41,7.41,0,0,0,7.32-7.39H126.77Z"/><circle class="cls-2" cx="21.33" cy="213.79" r="3.69"/><circle class="cls-2" cx="32.09" cy="213.79" r="3.69"/><path class="cls-2" d="M83.06,233.33h29.82v-7.39H90.38a7.16,7.16,0,0,0-5.19,2.2A7.36,7.36,0,0,0,83.06,233.33Z"/><circle class="cls-2" cx="73.53" cy="229.64" r="3.69"/><path class="cls-2" d="M153.34,233a7.69,7.69,0,0,1-7.71-7.67s0,0,0,0h7.71V233Z"/><path class="cls-2" d="M145.63,225.29a7.69,7.69,0,0,1,7.67-7.71h0v7.71h-7.71Z"/><path class="cls-2" d="M153.28,225.29a7.69,7.69,0,0,1,7.72,7.66s0,0,0,.05h-7.71v-7.71h0Z"/><path class="cls-2" d="M188.78,196.56a7.56,7.56,0,0,0-7.59,7.53s0,0,0,.06h7.59v-7.59Z"/><path class="cls-2" d="M188.71,204.14a7.56,7.56,0,0,0,7.59-7.53s0,0,0-.06h-7.59v7.59Z"/><path class="cls-2" d="M163.32,181.13H134v7.27h22.12A7.25,7.25,0,0,0,163.32,181.13Z"/><path class="cls-2" d="M139.53,196.37h0a7.29,7.29,0,0,0-7.2,7.27h36.91a7.29,7.29,0,0,0,7.2-7.27H139.53Z"/><circle class="cls-2" cx="122.77" cy="200.19" r="3.63"/><circle class="cls-2" cx="173.39" cy="183.87" r="3.63"/><circle class="cls-2" cx="183.97" cy="183.87" r="3.63"/><path class="cls-6" d="M69.39,139.87c-4.17,13.25,8.88,14.15-.82,21.42,5,3.28,3.7,14.6,9.32,10.74a12.47,12.47,0,0,0,1.19,5s7.68,1.16,8.44-.79c0.43-1.1-1.74-4.71-2.9-5.8-3.6-1.54-4.92-4.37-7.49-9,2.36-.94,7.83-3.8,9.64-12.54,5.4,2.22,19.78-.34,24.62-8.7,2.49,1.11,2.83,4.18,4.22,4,2.51-1.54,10.33-4.76,13.23-5,1.93,0,.65,7,0.23,7.4-5.48.82-5.16,1.71-3.59,5.29,0.91,2.06,2.15,3.72,4,3.2a3.66,3.66,0,0,0,2.58-3c0.07-.31,4.09-10.55,4.07-16.4l-2.51-2.51c-2.89-1-7.53-.58-11.19,0,0-1.74-2.12-5.21-4.26-6.5-0.27-12.12-1.48-9.59-1.44-15.37a12.7,12.7,0,0,0,6,.51,30.84,30.84,0,0,0,6,3.22c4,1.56,8.3-4,5.27-7.07a27.88,27.88,0,0,1-5.41-8A28.48,28.48,0,0,0,123,92.64c-1.15-1.14-2-1.88-2.25-2.07-0.72-.65-2.45-4.68-4-5.06-1.79-.44-3.47,5.09-1.33,8.81-5.76,3.1-13.22,9.79-17.62,26.26C88.07,130.35,74.17,124.69,69.39,139.87Z"/><path class="cls-6" d="M87.4,141.67a13.6,13.6,0,0,1-.64,7.27"/><path class="cls-6" d="M107.11,139.62a6.14,6.14,0,0,1,4.27.63"/><path class="cls-6" d="M116.76,111.44s-3.59-1.86-1.81-6.79"/><path class="cls-6" d="M121.88,100.57s1.85,0.58,2.17,1.45"/><path class="cls-6" d="M110.3,124.24a12.1,12.1,0,0,1,7.9,2.57"/><path class="cls-6" d="M70.16,137.36c-2.75.91-9.34,3.44-11.19,11.58-1.93,8.49,1.35,13.51-1.16,20.46,9.46-2.12,6.75-20.46,10.61-24.12"/><path class="cls-6" d="M108,100c-15.75,2.55-13.62,22.28-19,25.82"/><path class="cls-6" d="M127.55,97.4s8.12-7.66,13-11.86c-5.26.16-17.27,7-17.27,7"/><path class="cls-6" d="M113.1,95.27c0,0.23-11.26-3.33-19.92,6.71C86,110.31,88,123.08,81,128.33"/><path class="cls-6" d="M114.32,91.2s-12.13-4.58-21.93,3.21c-14.3,11.36-10.22,28.67-17.27,36.9"/><polygon class="cls-7" points="129.81 8.8 147 8.8 147 24.73 142.81 20.54 129.81 20.54 129.81 8.8"/><polygon class="cls-7" points="138.19 15.51 121 15.51 121 29.76 125.19 25.57 138.19 25.57 138.19 15.51"/><rect class="cls-7" x="129.81" y="15.51" width="8.39" height="5.03"/><polygon class="cls-8" points="138.19 15.51 121 15.51 121 29.76 125.19 25.57 138.19 25.57 138.19 15.51"/><polygon class="cls-8" points="129.81 8.8 147 8.8 147 24.73 142.81 20.54 129.81 20.54 129.81 8.8"/><line class="cls-9" x1="127.71" y1="18.02" x2="123.1" y2="18.02"/><line class="cls-9" x1="127.71" y1="19.7" x2="123.1" y2="19.7"/><line class="cls-9" x1="141.44" y1="14.67" x2="135.09" y2="14.67"/><line class="cls-9" x1="142.3" y1="16.34" x2="134.22" y2="16.34"/><line class="cls-9" x1="140.45" y1="18.02" x2="135.96" y2="18.02"/><rect class="cls-7" x="132.32" y="11.31" width="12.16" height="1.68"/><rect class="cls-8" x="132.32" y="11.31" width="12.16" height="1.68"/></svg>